<?xml version="1.0" standalone="no"?>
<!DOCTYPE svg PUBLIC "-//W3C//DTD SVG 20010904//EN"
 "http://www.w3.org/TR/2001/REC-SVG-20010904/DTD/svg10.dtd">
<svg version="1.0" xmlns="http://www.w3.org/2000/svg"
 width="800.000000pt" height="800.000000pt" viewBox="0 0 800.000000 800.000000"
 preserveAspectRatio="xMidYMid meet">

<g transform="translate(0.000000,800.000000) scale(0.100000,-0.100000)"
fill="#000000" stroke="none">
<path d="M1468 6186 c-12 -11 -14 -172 -13 -984 l1 -970 26 -39 c19 -28 363
-462 471 -593 6 -8 46 -58 87 -110 41 -52 77 -97 80 -100 3 -3 111 -138 240
-300 129 -162 237 -297 240 -300 3 -3 39 -48 80 -100 41 -52 83 -104 92 -115
9 -11 76 -94 148 -185 73 -91 144 -173 158 -182 25 -17 81 -18 808 -18 683 0
783 2 788 15 4 12 -180 250 -563 725 -15 19 -159 199 -320 400 -160 201 -304
381 -320 400 -15 19 -159 199 -320 400 -160 201 -304 381 -320 400 -16 19
-158 197 -316 395 -158 198 -302 378 -320 400 -18 22 -162 202 -320 400 -158
198 -301 377 -319 399 -17 21 -33 42 -34 47 -8 20 -40 29 -54 15z"/>
<path d="M6279 6173 c-14 -16 -70 -84 -125 -153 -54 -68 -106 -134 -116 -145
-321 -392 -1828 -2292 -1828 -2304 0 -16 15 -19 153 -23 83 -3 436 -5 782 -4
537 1 633 4 653 16 13 8 92 101 175 205 83 105 154 192 157 195 26 24 192 243
200 264 7 18 10 351 10 990 0 1059 2 1028 -61 959z"/>
</g>
</svg>
